<?xml version="1.0" standalone="no"?>
<!DOCTYPE svg PUBLIC "-//W3C//DTD SVG 20010904//EN"
 "http://www.w3.org/TR/2001/REC-SVG-20010904/DTD/svg10.dtd">
<svg version="1.0" xmlns="http://www.w3.org/2000/svg"
 width="121.000000pt" height="121.000000pt" viewBox="0 0 121.000000 121.000000"
 preserveAspectRatio="xMidYMid meet">
<metadata>
Created by potrace 1.14, written by Peter Selinger 2001-2017
</metadata>
<g transform="translate(0.000000,121.000000) scale(0.100000,-0.100000)"
fill="#000000" stroke="none">
<path d="M310 1010 l0 -100 50 0 50 0 0 -50 0 -50 50 0 50 0 0 50 0 50 50 0
50 0 0 100 0 100 -50 0 -50 0 0 -50 0 -50 -50 0 -50 0 0 50 0 50 -50 0 -50 0
0 -100z"/>
<path d="M610 760 l0 -50 -200 0 -200 0 0 -50 0 -50 -50 0 -50 0 0 -200 0
-200 50 0 50 0 0 -50 0 -50 450 0 450 0 0 50 0 50 -50 0 -50 0 0 50 0 50 50 0
50 0 0 200 0 200 -50 0 -50 0 0 50 0 50 -200 0 -200 0 0 -50z m400 -250 l0
-200 -50 0 -50 0 0 -50 0 -50 -200 0 -200 0 0 100 0 100 -100 0 -100 0 0 -50
0 -50 50 0 50 0 0 -50 0 -50 -100 0 -100 0 0 200 0 200 200 0 200 0 0 -150 0
-150 100 0 100 0 0 50 0 50 -50 0 -50 0 0 150 0 150 150 0 150 0 0 -200z"/>
<path d="M810 560 l0 -50 50 0 50 0 0 50 0 50 -50 0 -50 0 0 -50z"/>
</g>
</svg>
